<svg height="800pt" preserveAspectRatio="xMidYMid meet" viewBox="0 0 800 800" width="800pt" xmlns="http://www.w3.org/2000/svg"><g transform="matrix(.1 0 0 -.1 0 800)"><path d="m3775 7994c-22-2-96-9-165-15-278-24-611-96-895-193-1225-416-2170-1395-2544-2635-258-856-219-1792 111-2621 477-1202 1505-2099 2759-2408 849-210 1732-138 2539 208 635 271 1201 717 1619 1274 1130 1507 1054 3600-183 5021-658 756-1572 1235-2576 1350-127 15-577 28-665 19zm225-1328c382-40 661-111 901-230 357-178 592-447 714-819 58-179 70-272 69-537-1-231-6-287-50-496-6-31-5-32 63-58 283-113 513-298 661-531 104-166 179-400 219-685 25-183 25-629 0-755-59-290-166-495-356-685-307-306-721-463-1411-536-204-21-1296-32-1573-15-563 34-861 130-1090 350-203 194-320 501-357 936-6 75-10 665-10 1560 0 1229 2 1455 15 1540 81 537 467 906 1021 975 118 15 1007 4 1184-14z"/><path d="m2850 6148c-229-32-418-174-491-367-50-133-49-106-49-1589 0-867 4-1439 11-1527 18-253 62-415 145-537 126-186 332-256 824-278 408-19 1165-6 1495 25 763 72 1135 287 1253 723 24 91 26 110 26 322-1 610-130 892-492 1074-130 66-111 74-186-77-233-472-561-790-932-903-82-26-103-28-259-28-188-1-236 8-371 69-226 103-397 301-466 542-19 64-23 103-23 213 0 151 19 239 76 353 136 272 432 478 798 557 250 54 566 52 877-6l32-6 11 64c54 298 29 614-65 801-157 313-476 484-1026 552-259 32-1024 47-1188 23z"/><path d="m4365 4205c-237-44-419-152-477-282-48-107-17-246 72-327 65-58 115-79 207-84 156-9 281 51 438 212 50 50 119 133 155 183 60 87 170 269 170 284 0 14-64 20-270 24-163 3-234 1-295-10z"/></g></svg>